<?xml version="1.0" encoding="UTF-8"?>
<svg width="18" height="18" viewBox="0 0 18 18" xmlns="http://www.w3.org/2000/svg">
  <path d="M15.145 13.74c-.51.92-.755 1.33-1.413 2.145-.915 1.13-2.208 2.54-3.814 2.556-1.42.015-1.783-.89-3.726-.88-1.943.008-2.339.9-3.76.884-1.606-.016-2.835-1.283-3.75-2.413C-3.41 13.132-3.582 9.123-1.89 7.085c1.2-1.444 3.099-2.29 4.84-2.29 1.777 0 2.897.895 4.368.895 1.425 0 2.292-.896 4.345-.896 1.553 0 3.198.674 4.37 1.84-3.84 2.107-3.215 7.602.112 7.106zM11.035 3.78C11.9 2.7 12.508 1.246 12.293 0c-1.078.08-2.334.765-3.067 1.647-.804.968-1.4 2.404-1.155 3.77 1.176.037 2.38-.643 2.964-1.637z" fill="#000000" fill-rule="nonzero"/>
</svg> 