<?xml version="1.0" encoding="UTF-8"?>
<svg width="100" height="100" viewBox="0 0 100 100" fill="none" xmlns="http://www.w3.org/2000/svg">
  <g>
    <path d="M21.4 61.4c0 5.9-4.8 10.7-10.7 10.7S0 67.3 0 61.4c0-5.9 4.8-10.7 10.7-10.7h10.7v10.7z" fill="#E01E5A"/>
    <path d="M26.8 61.4c0-5.9 4.8-10.7 10.7-10.7s10.7 4.8 10.7 10.7v26.8c0 5.9-4.8 10.7-10.7 10.7s-10.7-4.8-10.7-10.7V61.4z" fill="#E01E5A"/>
    <path d="M37.5 21.4c-5.9 0-10.7-4.8-10.7-10.7S31.6 0 37.5 0s10.7 4.8 10.7 10.7v10.7H37.5z" fill="#36C5F0"/>
    <path d="M37.5 26.8c5.9 0 10.7 4.8 10.7 10.7s-4.8 10.7-10.7 10.7H10.7C4.8 48.2 0 43.4 0 37.5s4.8-10.7 10.7-10.7h26.8z" fill="#36C5F0"/>
    <path d="M77.5 37.5c0-5.9 4.8-10.7 10.7-10.7s10.7 4.8 10.7 10.7-4.8 10.7-10.7 10.7H77.5V37.5z" fill="#2EB67D"/>
    <path d="M72.1 37.5c0 5.9-4.8 10.7-10.7 10.7s-10.7-4.8-10.7-10.7V10.7C50.7 4.8 55.5 0 61.4 0s10.7 4.8 10.7 10.7v26.8z" fill="#2EB67D"/>
    <path d="M61.4 77.5c5.9 0 10.7 4.8 10.7 10.7s-4.8 10.7-10.7 10.7-10.7-4.8-10.7-10.7V77.5h10.7z" fill="#ECB22E"/>
    <path d="M61.4 72.1c-5.9 0-10.7-4.8-10.7-10.7s4.8-10.7 10.7-10.7h26.8c5.9 0 10.7 4.8 10.7 10.7s-4.8 10.7-10.7 10.7H61.4z" fill="#ECB22E"/>
  </g>
</svg> 